<svg width="96" height="96" viewBox="0 0 96 96" fill="none" xmlns="http://www.w3.org/2000/svg">
  <!-- Shield Background -->
  <path d="M48 8C27.3 8 8 27.3 8 48C8 68.7 27.3 68.7 48 68.7C68.7 8 48 8 8C48 8 68.7 27.3 68.7 48C68.7 8 48 8 8C48 8 68.7 27.3 68.7 48C68.7 8 48 8 8Z" fill="url(#shield-gradient)"/>
  
  <!-- Shield Border -->
  <path d="M48 12L24 24V72C24 74.2 25.8 76 36C30.2 76 36 72V24L48 12Z" stroke="#3B82F6" stroke-width="1" fill="none"/>
  
  <!-- Location Pin -->
  <circle cx="48" cy="44" r="4" fill="#DC2626"/>
  <path d="M48 40L46 42H50L48 40Z" fill="#DC2626"/>
  <path d="M48 48L44 52H52L48 48Z" fill="#DC2626"/>
  
  <!-- Shield Shine Effect -->
  <path d="M48 16L32 24L48 48L64 24L48 16Z" fill="white" opacity="0.3"/>
  
  <!-- Definitions -->
  <defs>
    <linearGradient id="shield-gradient" x1="0%" y1="0%" x2="100%" y2="100%">
      <stop offset="0%" style="stop-color:#1D9E75;stop-opacity:1" />
      <stop offset="100%" style="stop-color:#3B82F6;stop-opacity:1" />
    </linearGradient>
  </defs>
</svg>
